<svg xmlns="http://www.w3.org/2000/svg" xmlns:xlink="http://www.w3.org/1999/xlink" width="350" zoomAndPan="magnify" viewBox="0 0 262.5 109.499999" height="146" preserveAspectRatio="xMidYMid meet" version="1.0"><defs><g/><clipPath id="15dbf0e560"><path d="M 0.347656 0 L 261.355469 0 L 261.355469 109.003906 L 0.347656 109.003906 Z M 0.347656 0 " clip-rule="nonzero"/></clipPath><clipPath id="f08f670b75"><path d="M 45.144531 0 L 216.554688 0 C 241.292969 0 261.351562 20.054688 261.351562 44.796875 L 261.351562 64.207031 C 261.351562 88.945312 241.292969 109.003906 216.554688 109.003906 L 45.144531 109.003906 C 20.402344 109.003906 0.347656 88.945312 0.347656 64.207031 L 0.347656 44.796875 C 0.347656 20.054688 20.402344 0 45.144531 0 Z M 45.144531 0 " clip-rule="nonzero"/></clipPath><clipPath id="b5170627e2"><path d="M 15.492188 18.324219 L 87.851562 18.324219 L 87.851562 90.679688 L 15.492188 90.679688 Z M 15.492188 18.324219 " clip-rule="nonzero"/></clipPath></defs><g clip-path="url(#15dbf0e560)"><g clip-path="url(#f08f670b75)"><path fill="#d6edfa" d="M 0.347656 0 L 261.355469 0 L 261.355469 109.003906 L 0.347656 109.003906 Z M 0.347656 0 " fill-opacity="1" fill-rule="nonzero"/></g></g><g fill="#364f6b" fill-opacity="1"><g transform="translate(97.313246, 60.793879)"><g><path d="M 1.46875 -29.796875 L 1.234375 -30.0625 L 13.265625 -30.0625 L 14.140625 -27.625 C 14.492188 -26.675781 14.765625 -25.921875 14.953125 -25.359375 C 15.148438 -24.796875 15.28125 -24.457031 15.34375 -24.34375 C 15.425781 -24.101562 15.503906 -23.925781 15.578125 -23.8125 C 15.660156 -23.695312 15.703125 -23.664062 15.703125 -23.71875 C 15.722656 -23.71875 15.816406 -23.988281 15.984375 -24.53125 C 16.148438 -25.082031 16.4375 -25.878906 16.84375 -26.921875 L 17.875 -30.0625 L 23.953125 -30.0625 C 27.941406 -30.0625 29.9375 -30.046875 29.9375 -30.015625 C 29.9375 -29.960938 29.765625 -29.59375 29.421875 -28.90625 C 29.078125 -28.226562 28.640625 -27.398438 28.109375 -26.421875 C 27.578125 -25.453125 26.984375 -24.390625 26.328125 -23.234375 C 25.679688 -22.078125 25.070312 -20.984375 24.5 -19.953125 C 23.925781 -18.921875 23.414062 -18.007812 22.96875 -17.21875 C 22.53125 -16.4375 22.234375 -15.914062 22.078125 -15.65625 L 21.546875 -14.765625 L 21.546875 0.96875 L 9.84375 0.96875 L 9.84375 -14.375 L 8.953125 -15.828125 C 8.742188 -16.242188 8.410156 -16.863281 7.953125 -17.6875 C 7.492188 -18.519531 6.925781 -19.554688 6.25 -20.796875 C 4.832031 -23.398438 3.722656 -25.445312 2.921875 -26.9375 C 2.128906 -28.425781 1.644531 -29.378906 1.46875 -29.796875 Z M 1.46875 -29.796875 "/></g></g></g><g fill="#364f6b" fill-opacity="1"><g transform="translate(128.526987, 60.793879)"><g><path d="M 18 -19.734375 C 17.914062 -19.734375 17.738281 -18.976562 17.46875 -17.46875 C 17.351562 -16.851562 17.269531 -16.378906 17.21875 -16.046875 C 17.175781 -15.722656 17.160156 -15.476562 17.171875 -15.3125 C 17.191406 -15.15625 17.242188 -15.0625 17.328125 -15.03125 C 17.421875 -15 17.554688 -14.984375 17.734375 -14.984375 C 17.910156 -14.984375 18.195312 -14.972656 18.59375 -14.953125 C 19 -14.941406 19.523438 -14.925781 20.171875 -14.90625 C 21.566406 -14.726562 22.265625 -14.679688 22.265625 -14.765625 C 22.378906 -14.796875 22.300781 -15.535156 22.03125 -16.984375 C 21.882812 -17.691406 21.765625 -18.207031 21.671875 -18.53125 C 21.585938 -18.863281 21.503906 -19.054688 21.421875 -19.109375 C 21.359375 -19.171875 21.171875 -19.238281 20.859375 -19.3125 C 20.546875 -19.382812 20.195312 -19.445312 19.8125 -19.5 C 19.4375 -19.5625 19.070312 -19.613281 18.71875 -19.65625 C 18.363281 -19.707031 18.125 -19.734375 18 -19.734375 Z M 6.828125 -29.625 L 6.875 -30.015625 L 19.59375 -30.015625 C 23.914062 -30.046875 27.125 -30.050781 29.21875 -30.03125 C 31.320312 -30.019531 32.375 -30 32.375 -29.96875 C 32.375 -29.914062 32.460938 -29.363281 32.640625 -28.3125 C 32.816406 -27.257812 33.066406 -25.703125 33.390625 -23.640625 C 33.890625 -20.566406 34.375 -17.5 34.84375 -14.4375 C 35.320312 -11.375 35.785156 -8.320312 36.234375 -5.28125 C 36.460938 -3.414062 36.671875 -1.972656 36.859375 -0.953125 C 37.054688 0.0664062 37.15625 0.609375 37.15625 0.671875 L 37.203125 0.96875 L 25.359375 0.96875 L 25.28125 0.703125 C 25.28125 0.585938 25.054688 -0.648438 24.609375 -3.015625 C 24.398438 -4.171875 24.257812 -5.039062 24.1875 -5.625 C 24.113281 -6.21875 24.078125 -6.53125 24.078125 -6.5625 C 24.078125 -6.625 22.597656 -6.65625 19.640625 -6.65625 L 15.46875 -6.65625 L 15.296875 -5.984375 C 15.234375 -5.773438 15.148438 -5.351562 15.046875 -4.71875 C 14.953125 -4.082031 14.800781 -3.25 14.59375 -2.21875 L 13.96875 0.96875 L 2.3125 0.96875 L 2.3125 0.578125 C 2.539062 -0.335938 2.96875 -3.144531 3.59375 -7.84375 C 3.625 -8 3.660156 -8.191406 3.703125 -8.421875 C 3.742188 -8.660156 3.785156 -8.910156 3.828125 -9.171875 C 3.878906 -9.441406 3.914062 -9.6875 3.9375 -9.90625 C 3.96875 -10.132812 3.984375 -10.289062 3.984375 -10.375 C 4.816406 -16.320312 5.484375 -20.882812 5.984375 -24.0625 C 6.484375 -27.238281 6.765625 -29.09375 6.828125 -29.625 Z M 6.828125 -29.625 "/></g></g></g><g fill="#364f6b" fill-opacity="1"><g transform="translate(168.120553, 60.793879)"><g><path d="M 1.421875 -30.15625 L 29.625 -30.15625 L 29.625 -24.484375 L 22.75 -24.484375 L 22.75 0.96875 L 8.515625 0.96875 L 8.515625 -24.484375 L 1.421875 -24.484375 Z M 1.421875 -30.15625 "/></g></g></g><g fill="#364f6b" fill-opacity="1"><g transform="translate(199.201279, 60.793879)"><g><path d="M 18 -19.734375 C 17.914062 -19.734375 17.738281 -18.976562 17.46875 -17.46875 C 17.351562 -16.851562 17.269531 -16.378906 17.21875 -16.046875 C 17.175781 -15.722656 17.160156 -15.476562 17.171875 -15.3125 C 17.191406 -15.15625 17.242188 -15.0625 17.328125 -15.03125 C 17.421875 -15 17.554688 -14.984375 17.734375 -14.984375 C 17.910156 -14.984375 18.195312 -14.972656 18.59375 -14.953125 C 19 -14.941406 19.523438 -14.925781 20.171875 -14.90625 C 21.566406 -14.726562 22.265625 -14.679688 22.265625 -14.765625 C 22.378906 -14.796875 22.300781 -15.535156 22.03125 -16.984375 C 21.882812 -17.691406 21.765625 -18.207031 21.671875 -18.53125 C 21.585938 -18.863281 21.503906 -19.054688 21.421875 -19.109375 C 21.359375 -19.171875 21.171875 -19.238281 20.859375 -19.3125 C 20.546875 -19.382812 20.195312 -19.445312 19.8125 -19.5 C 19.4375 -19.5625 19.070312 -19.613281 18.71875 -19.65625 C 18.363281 -19.707031 18.125 -19.734375 18 -19.734375 Z M 6.828125 -29.625 L 6.875 -30.015625 L 19.59375 -30.015625 C 23.914062 -30.046875 27.125 -30.050781 29.21875 -30.03125 C 31.320312 -30.019531 32.375 -30 32.375 -29.96875 C 32.375 -29.914062 32.460938 -29.363281 32.640625 -28.3125 C 32.816406 -27.257812 33.066406 -25.703125 33.390625 -23.640625 C 33.890625 -20.566406 34.375 -17.5 34.84375 -14.4375 C 35.320312 -11.375 35.785156 -8.320312 36.234375 -5.28125 C 36.460938 -3.414062 36.671875 -1.972656 36.859375 -0.953125 C 37.054688 0.0664062 37.15625 0.609375 37.15625 0.671875 L 37.203125 0.96875 L 25.359375 0.96875 L 25.28125 0.703125 C 25.28125 0.585938 25.054688 -0.648438 24.609375 -3.015625 C 24.398438 -4.171875 24.257812 -5.039062 24.1875 -5.625 C 24.113281 -6.21875 24.078125 -6.53125 24.078125 -6.5625 C 24.078125 -6.625 22.597656 -6.65625 19.640625 -6.65625 L 15.46875 -6.65625 L 15.296875 -5.984375 C 15.234375 -5.773438 15.148438 -5.351562 15.046875 -4.71875 C 14.953125 -4.082031 14.800781 -3.25 14.59375 -2.21875 L 13.96875 0.96875 L 2.3125 0.96875 L 2.3125 0.578125 C 2.539062 -0.335938 2.96875 -3.144531 3.59375 -7.84375 C 3.625 -8 3.660156 -8.191406 3.703125 -8.421875 C 3.742188 -8.660156 3.785156 -8.910156 3.828125 -9.171875 C 3.878906 -9.441406 3.914062 -9.6875 3.9375 -9.90625 C 3.96875 -10.132812 3.984375 -10.289062 3.984375 -10.375 C 4.816406 -16.320312 5.484375 -20.882812 5.984375 -24.0625 C 6.484375 -27.238281 6.765625 -29.09375 6.828125 -29.625 Z M 6.828125 -29.625 "/></g></g></g><g fill="#364f6b" fill-opacity="1"><g transform="translate(95.349284, 84.46869)"><g><path d="M 6.164062 -5.785156 L 6.164062 -7.503906 L 3.914062 -7.503906 L 3.914062 -4.613281 L 2.417969 -4.613281 L 2.417969 -7.503906 L 0.167969 -7.503906 L 0.167969 -5.785156 L 0.539062 -5.785156 L 0.539062 -2.960938 L 2.226562 -2.960938 L 2.226562 0 L 4.105469 0 L 4.105469 -2.960938 L 5.792969 -2.960938 L 5.792969 -5.785156 Z M 6.164062 -5.785156 "/></g></g></g><g fill="#364f6b" fill-opacity="1"><g transform="translate(101.682646, 84.46869)"><g><path d="M 5.90625 0 L 5.90625 -1.710938 L 2.171875 -1.710938 L 2.171875 -2.949219 L 5.90625 -2.949219 L 5.90625 -4.601562 L 2.171875 -4.601562 L 2.171875 -5.785156 L 5.90625 -5.785156 L 5.90625 -7.503906 L 0.292969 -7.503906 L 0.292969 0 Z M 5.90625 0 "/></g></g></g><g fill="#364f6b" fill-opacity="1"><g transform="translate(107.881025, 84.46869)"><g><path d="M 5.804688 -5.785156 L 5.804688 -7.503906 L 0.167969 -7.503906 L 0.167969 -5.785156 L 2.058594 -5.785156 L 2.058594 0 L 3.9375 0 L 3.9375 -5.785156 Z M 5.804688 -5.785156 "/></g></g></g><g fill="#364f6b" fill-opacity="1"><g transform="translate(113.854409, 84.46869)"><g/></g></g><g fill="#364f6b" fill-opacity="1"><g transform="translate(117.791674, 84.46869)"><g><path d="M 5.929688 0 L 5.929688 -7.503906 L 0.292969 -7.503906 L 0.292969 0 L 2.171875 0 L 2.171875 -2.09375 L 4.050781 -2.09375 L 4.050781 0 Z M 4.050781 -3.804688 L 2.171875 -3.804688 L 2.171875 -5.785156 L 4.050781 -5.785156 Z M 4.050781 -3.804688 "/></g></g></g><g fill="#364f6b" fill-opacity="1"><g transform="translate(124.012548, 84.46869)"><g><path d="M 5.804688 0 L 5.804688 -7.503906 L 0.167969 -7.503906 L 0.167969 -5.785156 L 0.539062 -5.785156 L 0.539062 0 L 2.046875 0 L 2.046875 -5.785156 L 3.925781 -5.785156 L 3.925781 0 Z M 5.804688 0 "/></g></g></g><g fill="#364f6b" fill-opacity="1"><g transform="translate(130.109682, 84.46869)"><g><path d="M 5.929688 0 L 5.929688 -7.503906 L 0.292969 -7.503906 L 0.292969 0 Z M 4.050781 -1.710938 L 2.171875 -1.710938 L 2.171875 -5.785156 L 4.050781 -5.785156 Z M 4.050781 -1.710938 "/></g></g></g><g fill="#364f6b" fill-opacity="1"><g transform="translate(136.330557, 84.46869)"><g><path d="M 5.804688 -5.785156 L 5.804688 -7.503906 L 0.167969 -7.503906 L 0.167969 -5.785156 L 2.058594 -5.785156 L 2.058594 0 L 3.9375 0 L 3.9375 -5.785156 Z M 5.804688 -5.785156 "/></g></g></g><g fill="#364f6b" fill-opacity="1"><g transform="translate(142.303941, 84.46869)"><g><path d="M 5.929688 0 L 5.929688 -7.503906 L 4.050781 -7.503906 L 4.050781 -4.601562 L 2.171875 -4.601562 L 2.171875 -7.503906 L 0.292969 -7.503906 L 0.292969 0 L 2.171875 0 L 2.171875 -2.949219 L 4.050781 -2.949219 L 4.050781 0 Z M 5.929688 0 "/></g></g></g><g fill="#364f6b" fill-opacity="1"><g transform="translate(148.524815, 84.46869)"><g><path d="M 5.90625 0 L 5.90625 -1.710938 L 2.171875 -1.710938 L 2.171875 -2.949219 L 5.90625 -2.949219 L 5.90625 -4.601562 L 2.171875 -4.601562 L 2.171875 -5.785156 L 5.90625 -5.785156 L 5.90625 -7.503906 L 0.292969 -7.503906 L 0.292969 0 Z M 5.90625 0 "/></g></g></g><g fill="#364f6b" fill-opacity="1"><g transform="translate(154.723194, 84.46869)"><g><path d="M 5.929688 0 L 4.828125 -2.09375 L 5.929688 -2.09375 L 5.929688 -7.503906 L 0.292969 -7.503906 L 0.292969 0 L 2.171875 0 L 2.171875 -2.09375 L 2.980469 -2.09375 L 4.050781 0 Z M 4.050781 -3.804688 L 2.171875 -3.804688 L 2.171875 -5.785156 L 4.050781 -5.785156 Z M 4.050781 -3.804688 "/></g></g></g><g fill="#364f6b" fill-opacity="1"><g transform="translate(160.944069, 84.46869)"><g/></g></g><g fill="#364f6b" fill-opacity="1"><g transform="translate(164.881333, 84.46869)"><g><path d="M 5.804688 -5.785156 L 5.804688 -7.503906 L 0.167969 -7.503906 L 0.167969 -5.785156 L 2.058594 -5.785156 L 2.058594 0 L 3.9375 0 L 3.9375 -5.785156 Z M 5.804688 -5.785156 "/></g></g></g><g fill="#364f6b" fill-opacity="1"><g transform="translate(170.854717, 84.46869)"><g><path d="M 2.171875 0 L 2.171875 -7.503906 L 0.292969 -7.503906 L 0.292969 0 Z M 2.171875 0 "/></g></g></g><g fill="#364f6b" fill-opacity="1"><g transform="translate(173.318321, 84.46869)"><g><path d="M 7.671875 0 L 7.671875 -7.503906 L 0.167969 -7.503906 L 0.167969 -5.785156 L 0.539062 -5.785156 L 0.539062 0 L 2.046875 0 L 2.046875 -5.785156 L 2.980469 -5.785156 L 2.980469 0 L 4.859375 0 L 4.859375 -5.785156 L 5.792969 -5.785156 L 5.792969 0 Z M 7.671875 0 "/></g></g></g><g fill="#364f6b" fill-opacity="1"><g transform="translate(181.282843, 84.46869)"><g><path d="M 5.90625 0 L 5.90625 -1.710938 L 2.171875 -1.710938 L 2.171875 -2.949219 L 5.90625 -2.949219 L 5.90625 -4.601562 L 2.171875 -4.601562 L 2.171875 -5.785156 L 5.90625 -5.785156 L 5.90625 -7.503906 L 0.292969 -7.503906 L 0.292969 0 Z M 5.90625 0 "/></g></g></g><g fill="#364f6b" fill-opacity="1"><g transform="translate(187.481221, 84.46869)"><g><path d="M 5.804688 -5.785156 L 5.804688 -7.503906 L 0.167969 -7.503906 L 0.167969 -5.785156 L 2.058594 -5.785156 L 2.058594 0 L 3.9375 0 L 3.9375 -5.785156 Z M 5.804688 -5.785156 "/></g></g></g><g fill="#364f6b" fill-opacity="1"><g transform="translate(193.454605, 84.46869)"><g><path d="M 5.929688 0 L 5.929688 -7.503906 L 0.292969 -7.503906 L 0.292969 0 L 2.171875 0 L 2.171875 -2.09375 L 4.050781 -2.09375 L 4.050781 0 Z M 4.050781 -3.804688 L 2.171875 -3.804688 L 2.171875 -5.785156 L 4.050781 -5.785156 Z M 4.050781 -3.804688 "/></g></g></g><g fill="#364f6b" fill-opacity="1"><g transform="translate(199.67548, 84.46869)"><g><path d="M 5.929688 0 L 5.929688 -2.949219 L 5.097656 -3.769531 L 5.929688 -4.601562 L 5.929688 -7.503906 L 0.292969 -7.503906 L 0.292969 0 Z M 4.050781 -4.601562 L 2.171875 -4.601562 L 2.171875 -5.785156 L 4.050781 -5.785156 Z M 4.050781 -1.710938 L 2.171875 -1.710938 L 2.171875 -2.949219 L 4.050781 -2.949219 Z M 4.050781 -1.710938 "/></g></g></g><g fill="#364f6b" fill-opacity="1"><g transform="translate(205.896354, 84.46869)"><g><path d="M 5.90625 0 L 5.90625 -1.710938 L 2.171875 -1.710938 L 2.171875 -7.503906 L 0.292969 -7.503906 L 0.292969 0 Z M 5.90625 0 "/></g></g></g><g fill="#364f6b" fill-opacity="1"><g transform="translate(212.027237, 84.46869)"><g><path d="M 5.90625 0 L 5.90625 -1.710938 L 2.171875 -1.710938 L 2.171875 -2.949219 L 5.90625 -2.949219 L 5.90625 -4.601562 L 2.171875 -4.601562 L 2.171875 -5.785156 L 5.90625 -5.785156 L 5.90625 -7.503906 L 0.292969 -7.503906 L 0.292969 0 Z M 5.90625 0 "/></g></g></g><g fill="#364f6b" fill-opacity="1"><g transform="translate(218.225615, 84.46869)"><g/></g></g><g fill="#364f6b" fill-opacity="1"><g transform="translate(222.16288, 84.46869)"><g><path d="M 5.929688 0 L 5.929688 -7.503906 L 0.292969 -7.503906 L 0.292969 0 L 2.171875 0 L 2.171875 -2.09375 L 4.050781 -2.09375 L 4.050781 0 Z M 4.050781 -3.804688 L 2.171875 -3.804688 L 2.171875 -5.785156 L 4.050781 -5.785156 Z M 4.050781 -3.804688 "/></g></g></g><g fill="#364f6b" fill-opacity="1"><g transform="translate(228.383755, 84.46869)"><g><path d="M 5.929688 -2.09375 L 5.929688 -7.503906 L 0.292969 -7.503906 L 0.292969 0 L 2.171875 0 L 2.171875 -2.09375 Z M 4.050781 -3.804688 L 2.171875 -3.804688 L 2.171875 -5.785156 L 4.050781 -5.785156 Z M 4.050781 -3.804688 "/></g></g></g><g fill="#364f6b" fill-opacity="1"><g transform="translate(234.570881, 84.46869)"><g><path d="M 5.929688 -2.09375 L 5.929688 -7.503906 L 0.292969 -7.503906 L 0.292969 0 L 2.171875 0 L 2.171875 -2.09375 Z M 4.050781 -3.804688 L 2.171875 -3.804688 L 2.171875 -5.785156 L 4.050781 -5.785156 Z M 4.050781 -3.804688 "/></g></g></g><g clip-path="url(#b5170627e2)"><path fill="#364f6b" d="M 51.671875 90.679688 C 42.007812 90.679688 32.921875 86.917969 26.089844 80.082031 C 19.253906 73.25 15.492188 64.164062 15.492188 54.5 C 15.492188 44.835938 19.253906 35.753906 26.089844 28.917969 C 32.921875 22.085938 42.007812 18.324219 51.671875 18.324219 C 61.335938 18.324219 70.417969 22.085938 77.253906 28.917969 C 84.085938 35.753906 87.851562 44.835938 87.851562 54.5 C 87.851562 64.164062 84.085938 73.25 77.253906 80.082031 C 70.421875 86.917969 61.335938 90.679688 51.671875 90.679688 Z M 51.671875 23.84375 C 34.765625 23.84375 21.015625 37.597656 21.015625 54.5 C 21.015625 71.40625 34.765625 85.15625 51.671875 85.15625 C 68.574219 85.15625 82.328125 71.40625 82.328125 54.5 C 82.328125 37.597656 68.574219 23.84375 51.671875 23.84375 Z M 51.671875 23.84375 " fill-opacity="1" fill-rule="nonzero"/></g><path fill="#364f6b" d="M 63.679688 68.46875 C 63.140625 68.46875 62.597656 68.3125 62.121094 67.988281 L 48.671875 58.761719 C 47.917969 58.246094 47.472656 57.394531 47.472656 56.480469 L 47.507812 33.914062 C 47.507812 32.390625 48.746094 31.15625 50.265625 31.15625 C 50.269531 31.15625 50.269531 31.15625 50.269531 31.15625 C 51.796875 31.160156 53.03125 32.398438 53.027344 33.921875 L 52.996094 55.035156 L 65.242188 63.433594 C 66.5 64.296875 66.820312 66.015625 65.957031 67.269531 C 65.421875 68.050781 64.558594 68.46875 63.679688 68.46875 Z M 63.679688 68.46875 " fill-opacity="1" fill-rule="nonzero"/></svg>