<svg xmlns="http://www.w3.org/2000/svg" xmlns:xlink="http://www.w3.org/1999/xlink" width="1366" zoomAndPan="magnify" viewBox="0 0 1024.5 576" height="768" preserveAspectRatio="xMidYMid meet" version="1.0"><defs><g/><clipPath id="6066193562"><path d="M 0 0.140625 L 1024 0.140625 L 1024 575.859375 L 0 575.859375 Z M 0 0.140625 " clip-rule="nonzero"/></clipPath><clipPath id="3c180b095b"><path d="M 331.609375 26.179688 L 692.390625 26.179688 L 692.390625 550 L 331.609375 550 Z M 331.609375 26.179688 " clip-rule="nonzero"/></clipPath><clipPath id="1c7d7159e2"><path d="M 358.597656 26.179688 L 665.402344 26.179688 C 680.308594 26.179688 692.390625 38.265625 692.390625 53.167969 L 692.390625 522.992188 C 692.390625 537.898438 680.308594 549.980469 665.402344 549.980469 L 358.597656 549.980469 C 343.691406 549.980469 331.609375 537.898438 331.609375 522.992188 L 331.609375 53.167969 C 331.609375 38.265625 343.691406 26.179688 358.597656 26.179688 Z M 358.597656 26.179688 " clip-rule="nonzero"/></clipPath><clipPath id="acd21c983d"><path d="M 18.3125 125.292969 L 208.515625 125.292969 L 208.515625 458.144531 L 18.3125 458.144531 Z M 18.3125 125.292969 " clip-rule="nonzero"/></clipPath><clipPath id="b362aec8ec"><path d="M 45.300781 125.292969 L 181.527344 125.292969 C 196.433594 125.292969 208.515625 137.375 208.515625 152.277344 L 208.515625 431.09375 C 208.515625 446 196.433594 458.082031 181.527344 458.082031 L 45.300781 458.082031 C 30.394531 458.082031 18.3125 446 18.3125 431.09375 L 18.3125 152.277344 C 18.3125 137.375 30.394531 125.292969 45.300781 125.292969 Z M 45.300781 125.292969 " clip-rule="nonzero"/></clipPath><clipPath id="d0a0c1247c"><path d="M 27.054688 148.242188 L 199.960938 148.242188 L 199.960938 199.652344 L 27.054688 199.652344 Z M 27.054688 148.242188 " clip-rule="nonzero"/></clipPath><clipPath id="c4ae95e877"><path d="M 52.761719 148.242188 L 174.066406 148.242188 C 180.882812 148.242188 187.421875 150.949219 192.242188 155.769531 C 197.0625 160.589844 199.773438 167.128906 199.773438 173.945312 C 199.773438 180.765625 197.0625 187.300781 192.242188 192.121094 C 187.421875 196.941406 180.882812 199.652344 174.066406 199.652344 L 52.761719 199.652344 C 45.941406 199.652344 39.40625 196.941406 34.585938 192.121094 C 29.765625 187.300781 27.054688 180.765625 27.054688 173.945312 C 27.054688 167.128906 29.765625 160.589844 34.585938 155.769531 C 39.40625 150.949219 45.941406 148.242188 52.761719 148.242188 Z M 52.761719 148.242188 " clip-rule="nonzero"/></clipPath><clipPath id="dacea9ee41"><path d="M 27.054688 207.230469 L 199.960938 207.230469 L 199.960938 258.636719 L 27.054688 258.636719 Z M 27.054688 207.230469 " clip-rule="nonzero"/></clipPath><clipPath id="a593046c51"><path d="M 52.761719 207.230469 L 174.066406 207.230469 C 180.882812 207.230469 187.421875 209.9375 192.242188 214.757812 C 197.0625 219.578125 199.773438 226.117188 199.773438 232.933594 C 199.773438 239.75 197.0625 246.289062 192.242188 251.109375 C 187.421875 255.929688 180.882812 258.636719 174.066406 258.636719 L 52.761719 258.636719 C 45.941406 258.636719 39.40625 255.929688 34.585938 251.109375 C 29.765625 246.289062 27.054688 239.75 27.054688 232.933594 C 27.054688 226.117188 29.765625 219.578125 34.585938 214.757812 C 39.40625 209.9375 45.941406 207.230469 52.761719 207.230469 Z M 52.761719 207.230469 " clip-rule="nonzero"/></clipPath><clipPath id="ecc85c0a87"><path d="M 27.054688 266.132812 L 199.960938 266.132812 L 199.960938 317.542969 L 27.054688 317.542969 Z M 27.054688 266.132812 " clip-rule="nonzero"/></clipPath><clipPath id="e9271f205b"><path d="M 52.761719 266.132812 L 174.066406 266.132812 C 180.882812 266.132812 187.421875 268.84375 192.242188 273.664062 C 197.0625 278.484375 199.773438 285.023438 199.773438 291.839844 C 199.773438 298.65625 197.0625 305.195312 192.242188 310.015625 C 187.421875 314.835938 180.882812 317.542969 174.066406 317.542969 L 52.761719 317.542969 C 45.941406 317.542969 39.40625 314.835938 34.585938 310.015625 C 29.765625 305.195312 27.054688 298.65625 27.054688 291.839844 C 27.054688 285.023438 29.765625 278.484375 34.585938 273.664062 C 39.40625 268.84375 45.941406 266.132812 52.761719 266.132812 Z M 52.761719 266.132812 " clip-rule="nonzero"/></clipPath><clipPath id="b11bb9b09e"><path d="M 27.054688 325.039062 L 199.960938 325.039062 L 199.960938 376.449219 L 27.054688 376.449219 Z M 27.054688 325.039062 " clip-rule="nonzero"/></clipPath><clipPath id="dd9790ac75"><path d="M 52.761719 325.039062 L 174.066406 325.039062 C 180.882812 325.039062 187.421875 327.75 192.242188 332.570312 C 197.0625 337.390625 199.773438 343.925781 199.773438 350.746094 C 199.773438 357.5625 197.0625 364.101562 192.242188 368.921875 C 187.421875 373.742188 180.882812 376.449219 174.066406 376.449219 L 52.761719 376.449219 C 45.941406 376.449219 39.40625 373.742188 34.585938 368.921875 C 29.765625 364.101562 27.054688 357.5625 27.054688 350.746094 C 27.054688 343.925781 29.765625 337.390625 34.585938 332.570312 C 39.40625 327.75 45.941406 325.039062 52.761719 325.039062 Z M 52.761719 325.039062 " clip-rule="nonzero"/></clipPath><clipPath id="eb0063331b"><path d="M 27.054688 383.945312 L 199.960938 383.945312 L 199.960938 435.355469 L 27.054688 435.355469 Z M 27.054688 383.945312 " clip-rule="nonzero"/></clipPath><clipPath id="1a96a6aeb2"><path d="M 52.761719 383.945312 L 174.066406 383.945312 C 180.882812 383.945312 187.421875 386.652344 192.242188 391.472656 C 197.0625 396.296875 199.773438 402.832031 199.773438 409.652344 C 199.773438 416.46875 197.0625 423.003906 192.242188 427.828125 C 187.421875 432.648438 180.882812 435.355469 174.066406 435.355469 L 52.761719 435.355469 C 45.941406 435.355469 39.40625 432.648438 34.585938 427.828125 C 29.765625 423.003906 27.054688 416.46875 27.054688 409.652344 C 27.054688 402.832031 29.765625 396.296875 34.585938 391.472656 C 39.40625 386.652344 45.941406 383.945312 52.761719 383.945312 Z M 52.761719 383.945312 " clip-rule="nonzero"/></clipPath><clipPath id="40f78b64cd"><path d="M 720.125 26.179688 L 997.789062 26.179688 L 997.789062 550 L 720.125 550 Z M 720.125 26.179688 " clip-rule="nonzero"/></clipPath><clipPath id="66a79e6a71"><path d="M 747.113281 26.179688 L 970.804688 26.179688 C 977.960938 26.179688 984.824219 29.023438 989.886719 34.085938 C 994.949219 39.148438 997.789062 46.011719 997.789062 53.167969 L 997.789062 522.992188 C 997.789062 537.898438 985.707031 549.980469 970.804688 549.980469 L 747.113281 549.980469 C 739.957031 549.980469 733.089844 547.136719 728.03125 542.074219 C 722.96875 537.015625 720.125 530.152344 720.125 522.992188 L 720.125 53.167969 C 720.125 38.265625 732.207031 26.179688 747.113281 26.179688 Z M 747.113281 26.179688 " clip-rule="nonzero"/></clipPath><clipPath id="71540e0e0f"><path d="M 0 0.140625 L 304 0.140625 L 304 107.300781 L 0 107.300781 Z M 0 0.140625 " clip-rule="nonzero"/></clipPath><clipPath id="cee1d67d84"><path d="M -20.574219 -83.917969 L 276.605469 -83.917969 C 291.511719 -83.917969 303.59375 -71.835938 303.59375 -56.929688 L 303.59375 80.3125 C 303.59375 95.21875 291.511719 107.300781 276.605469 107.300781 L -20.574219 107.300781 C -35.480469 107.300781 -47.5625 95.21875 -47.5625 80.3125 L -47.5625 -56.929688 C -47.5625 -71.835938 -35.480469 -83.917969 -20.574219 -83.917969 Z M -20.574219 -83.917969 " clip-rule="nonzero"/></clipPath><clipPath id="884a845880"><path d="M 18.3125 476.078125 L 208.59375 476.078125 L 208.59375 556.726562 L 18.3125 556.726562 Z M 18.3125 476.078125 " clip-rule="nonzero"/></clipPath><clipPath id="a4e2364194"><path d="M 45.300781 476.078125 L 181.527344 476.078125 C 196.433594 476.078125 208.515625 488.160156 208.515625 503.066406 L 208.515625 529.738281 C 208.515625 544.644531 196.433594 556.726562 181.527344 556.726562 L 45.300781 556.726562 C 30.394531 556.726562 18.3125 544.644531 18.3125 529.738281 L 18.3125 503.066406 C 18.3125 488.160156 30.394531 476.078125 45.300781 476.078125 Z M 45.300781 476.078125 " clip-rule="nonzero"/></clipPath><clipPath id="82a3858ba2"><path d="M 29.519531 489.636719 L 82.742188 489.636719 L 82.742188 542.859375 L 29.519531 542.859375 Z M 29.519531 489.636719 " clip-rule="nonzero"/></clipPath></defs><g clip-path="url(#6066193562)"><path fill="#ffffff" d="M 0 0.140625 L 1024 0.140625 L 1024 575.859375 L 0 575.859375 Z M 0 0.140625 " fill-opacity="1" fill-rule="nonzero"/><path fill="#364f6a" d="M 0 0.140625 L 1024 0.140625 L 1024 575.859375 L 0 575.859375 Z M 0 0.140625 " fill-opacity="1" fill-rule="nonzero"/></g><g clip-path="url(#3c180b095b)"><g clip-path="url(#1c7d7159e2)"><path fill="#d6edfa" d="M 331.609375 26.179688 L 692.390625 26.179688 L 692.390625 550.4375 L 331.609375 550.4375 Z M 331.609375 26.179688 " fill-opacity="1" fill-rule="nonzero"/></g></g><path stroke-linecap="butt" transform="matrix(0.749634, 0, 0, 0.749634, 374.479458, 97.135359)" fill="none" stroke-linejoin="miter" d="M 0.00134788 1.997579 L 366.899088 1.997579 " stroke="#364f6a" stroke-width="4" stroke-opacity="1" stroke-miterlimit="4"/><g clip-path="url(#acd21c983d)"><g clip-path="url(#b362aec8ec)"><path fill="#d6edfa" d="M 18.3125 125.292969 L 208.515625 125.292969 L 208.515625 458.144531 L 18.3125 458.144531 Z M 18.3125 125.292969 " fill-opacity="1" fill-rule="nonzero"/></g></g><g clip-path="url(#d0a0c1247c)"><g clip-path="url(#c4ae95e877)"><path fill="#aac1d2" d="M 27.054688 148.242188 L 199.757812 148.242188 L 199.757812 199.652344 L 27.054688 199.652344 Z M 27.054688 148.242188 " fill-opacity="1" fill-rule="nonzero"/></g></g><g clip-path="url(#dacea9ee41)"><g clip-path="url(#a593046c51)"><path fill="#aac1d2" d="M 27.054688 207.230469 L 199.757812 207.230469 L 199.757812 258.636719 L 27.054688 258.636719 Z M 27.054688 207.230469 " fill-opacity="1" fill-rule="nonzero"/></g></g><g clip-path="url(#ecc85c0a87)"><g clip-path="url(#e9271f205b)"><path fill="#aac1d2" d="M 27.054688 266.132812 L 199.757812 266.132812 L 199.757812 317.542969 L 27.054688 317.542969 Z M 27.054688 266.132812 " fill-opacity="1" fill-rule="nonzero"/></g></g><g clip-path="url(#b11bb9b09e)"><g clip-path="url(#dd9790ac75)"><path fill="#aac1d2" d="M 27.054688 325.039062 L 199.757812 325.039062 L 199.757812 376.449219 L 27.054688 376.449219 Z M 27.054688 325.039062 " fill-opacity="1" fill-rule="nonzero"/></g></g><g clip-path="url(#eb0063331b)"><g clip-path="url(#1a96a6aeb2)"><path fill="#aac1d2" d="M 27.054688 383.945312 L 199.757812 383.945312 L 199.757812 435.355469 L 27.054688 435.355469 Z M 27.054688 383.945312 " fill-opacity="1" fill-rule="nonzero"/></g></g><g clip-path="url(#40f78b64cd)"><g clip-path="url(#66a79e6a71)"><path fill="#d6edfa" d="M 720.125 26.179688 L 997.789062 26.179688 L 997.789062 550.054688 L 720.125 550.054688 Z M 720.125 26.179688 " fill-opacity="1" fill-rule="nonzero"/></g></g><g fill="#364f6a" fill-opacity="1"><g transform="translate(780.408796, 64.03696)"><g><path d="M 1.40625 -19.359375 L 7.015625 -19.359375 C 9.703125 -19.359375 12 -18.4375 13.90625 -16.59375 C 15.820312 -14.757812 16.78125 -12.457031 16.78125 -9.6875 C 16.78125 -6.90625 15.828125 -4.59375 13.921875 -2.75 C 12.023438 -0.914062 9.722656 0 7.015625 0 L 1.40625 0 Z M 5.8125 -3.9375 L 6.5 -3.9375 C 8.113281 -3.9375 9.429688 -4.476562 10.453125 -5.5625 C 11.484375 -6.65625 12.003906 -8.023438 12.015625 -9.671875 C 12.015625 -11.316406 11.5 -12.6875 10.46875 -13.78125 C 9.445312 -14.875 8.125 -15.421875 6.5 -15.421875 L 5.8125 -15.421875 Z M 5.8125 -3.9375 "/></g></g></g><g fill="#364f6a" fill-opacity="1"><g transform="translate(797.721718, 64.03696)"><g><path d="M 2.234375 -1.484375 C 1.109375 -2.710938 0.546875 -4.21875 0.546875 -6 C 0.546875 -7.789062 1.109375 -9.300781 2.234375 -10.53125 C 3.359375 -11.769531 4.789062 -12.390625 6.53125 -12.390625 C 8.125 -12.390625 9.4375 -11.890625 10.46875 -10.890625 L 10.46875 -12.046875 L 14.625 -12.046875 L 14.625 0 L 10.515625 0 L 10.515625 -1.359375 L 10.46875 -1.359375 C 9.4375 -0.210938 8.125 0.359375 6.53125 0.359375 C 4.789062 0.359375 3.359375 -0.253906 2.234375 -1.484375 Z M 5.765625 -8.046875 C 5.222656 -7.515625 4.953125 -6.832031 4.953125 -6 C 4.953125 -5.175781 5.207031 -4.5 5.71875 -3.96875 C 6.238281 -3.445312 6.921875 -3.1875 7.765625 -3.1875 C 8.578125 -3.1875 9.242188 -3.453125 9.765625 -3.984375 C 10.296875 -4.515625 10.5625 -5.191406 10.5625 -6.015625 C 10.5625 -6.835938 10.289062 -7.515625 9.75 -8.046875 C 9.207031 -8.578125 8.546875 -8.84375 7.765625 -8.84375 C 6.972656 -8.84375 6.304688 -8.578125 5.765625 -8.046875 Z M 5.765625 -8.046875 "/></g></g></g><g fill="#364f6a" fill-opacity="1"><g transform="translate(813.744377, 64.03696)"><g><path d="M 1.796875 -18.75 C 2.285156 -19.238281 2.863281 -19.484375 3.53125 -19.484375 C 4.207031 -19.484375 4.789062 -19.238281 5.28125 -18.75 C 5.769531 -18.269531 6.015625 -17.691406 6.015625 -17.015625 C 6.015625 -16.335938 5.769531 -15.753906 5.28125 -15.265625 C 4.789062 -14.785156 4.207031 -14.546875 3.53125 -14.546875 C 2.863281 -14.546875 2.285156 -14.785156 1.796875 -15.265625 C 1.316406 -15.753906 1.078125 -16.335938 1.078125 -17.015625 C 1.078125 -17.691406 1.316406 -18.269531 1.796875 -18.75 Z M 1.40625 -12.046875 L 1.40625 0 L 5.5625 0 L 5.5625 -12.046875 Z M 1.40625 -12.046875 "/></g></g></g><g fill="#364f6a" fill-opacity="1"><g transform="translate(820.82907, 64.03696)"><g><path d="M 1.40625 0 L 1.40625 -20.1875 L 5.5625 -20.1875 L 5.5625 0 Z M 1.40625 0 "/></g></g></g><g fill="#364f6a" fill-opacity="1"><g transform="translate(827.796462, 64.03696)"><g><path d="M 10.53125 -12.046875 L 15.328125 -12.046875 L 5.859375 6.109375 L 1.078125 6.109375 L 5.234375 -1.875 L -0.46875 -12.046875 L 4.3125 -12.046875 L 7.671875 -5.859375 Z M 10.53125 -12.046875 "/></g></g></g><g fill="#364f6a" fill-opacity="1"><g transform="translate(842.646158, 64.03696)"><g/></g></g><g fill="#364f6a" fill-opacity="1"><g transform="translate(849.050532, 64.03696)"><g><path d="M 5.8125 -12.015625 L 5.8125 0 L 1.40625 0 L 1.40625 -19.359375 L 5.8125 -19.359375 L 13.515625 -7.34375 L 13.5625 -7.34375 L 13.5625 -19.359375 L 17.984375 -19.359375 L 17.984375 0 L 13.5625 0 L 5.859375 -12.015625 Z M 5.8125 -12.015625 "/></g></g></g><g fill="#364f6a" fill-opacity="1"><g transform="translate(868.427864, 64.03696)"><g><path d="M 2.546875 -1.421875 C 1.210938 -2.617188 0.546875 -4.144531 0.546875 -6 C 0.546875 -7.863281 1.238281 -9.394531 2.625 -10.59375 C 4.019531 -11.789062 5.742188 -12.390625 7.796875 -12.390625 C 9.804688 -12.390625 11.503906 -11.785156 12.890625 -10.578125 C 14.273438 -9.378906 14.96875 -7.851562 14.96875 -6 C 14.96875 -4.15625 14.289062 -2.632812 12.9375 -1.4375 C 11.582031 -0.238281 9.867188 0.359375 7.796875 0.359375 C 5.628906 0.359375 3.878906 -0.234375 2.546875 -1.421875 Z M 5.765625 -8.046875 C 5.222656 -7.515625 4.953125 -6.832031 4.953125 -6 C 4.953125 -5.175781 5.207031 -4.5 5.71875 -3.96875 C 6.238281 -3.445312 6.921875 -3.1875 7.765625 -3.1875 C 8.578125 -3.1875 9.242188 -3.453125 9.765625 -3.984375 C 10.296875 -4.515625 10.5625 -5.191406 10.5625 -6.015625 C 10.5625 -6.835938 10.289062 -7.515625 9.75 -8.046875 C 9.207031 -8.578125 8.546875 -8.84375 7.765625 -8.84375 C 6.972656 -8.84375 6.304688 -8.578125 5.765625 -8.046875 Z M 5.765625 -8.046875 "/></g></g></g><g fill="#364f6a" fill-opacity="1"><g transform="translate(883.934423, 64.03696)"><g><path d="M 2.109375 -12.046875 L 2.109375 -16.515625 L 6.265625 -16.515625 L 6.265625 -12.046875 L 8.796875 -12.046875 L 8.796875 -8.875 L 6.265625 -8.875 L 6.265625 -5.046875 C 6.265625 -3.929688 6.578125 -3.375 7.203125 -3.375 C 7.359375 -3.375 7.519531 -3.40625 7.6875 -3.46875 C 7.863281 -3.53125 8 -3.59375 8.09375 -3.65625 L 8.234375 -3.75 L 9.265625 -0.40625 C 8.378906 0.101562 7.363281 0.359375 6.21875 0.359375 C 5.4375 0.359375 4.765625 0.222656 4.203125 -0.046875 C 3.640625 -0.328125 3.210938 -0.695312 2.921875 -1.15625 C 2.628906 -1.625 2.421875 -2.109375 2.296875 -2.609375 C 2.171875 -3.117188 2.109375 -3.664062 2.109375 -4.25 L 2.109375 -8.875 L 0.375 -8.875 L 0.375 -12.046875 Z M 2.109375 -12.046875 "/></g></g></g><g fill="#364f6a" fill-opacity="1"><g transform="translate(893.200825, 64.03696)"><g><path d="M 1.796875 -18.75 C 2.285156 -19.238281 2.863281 -19.484375 3.53125 -19.484375 C 4.207031 -19.484375 4.789062 -19.238281 5.28125 -18.75 C 5.769531 -18.269531 6.015625 -17.691406 6.015625 -17.015625 C 6.015625 -16.335938 5.769531 -15.753906 5.28125 -15.265625 C 4.789062 -14.785156 4.207031 -14.546875 3.53125 -14.546875 C 2.863281 -14.546875 2.285156 -14.785156 1.796875 -15.265625 C 1.316406 -15.753906 1.078125 -16.335938 1.078125 -17.015625 C 1.078125 -17.691406 1.316406 -18.269531 1.796875 -18.75 Z M 1.40625 -12.046875 L 1.40625 0 L 5.5625 0 L 5.5625 -12.046875 Z M 1.40625 -12.046875 "/></g></g></g><g fill="#364f6a" fill-opacity="1"><g transform="translate(900.285517, 64.03696)"><g><path d="M 7.8125 -8.984375 C 7.03125 -8.984375 6.359375 -8.691406 5.796875 -8.109375 C 5.234375 -7.535156 4.953125 -6.84375 4.953125 -6.03125 C 4.953125 -5.195312 5.234375 -4.488281 5.796875 -3.90625 C 6.359375 -3.332031 7.03125 -3.046875 7.8125 -3.046875 C 8.1875 -3.046875 8.539062 -3.09375 8.875 -3.1875 C 9.21875 -3.28125 9.46875 -3.375 9.625 -3.46875 L 9.828125 -3.609375 L 11.234375 -0.734375 C 11.128906 -0.648438 10.976562 -0.550781 10.78125 -0.4375 C 10.582031 -0.320312 10.132812 -0.160156 9.4375 0.046875 C 8.75 0.253906 8.003906 0.359375 7.203125 0.359375 C 5.429688 0.359375 3.878906 -0.257812 2.546875 -1.5 C 1.210938 -2.75 0.546875 -4.242188 0.546875 -5.984375 C 0.546875 -7.734375 1.210938 -9.238281 2.546875 -10.5 C 3.878906 -11.757812 5.429688 -12.390625 7.203125 -12.390625 C 8.003906 -12.390625 8.738281 -12.296875 9.40625 -12.109375 C 10.082031 -11.921875 10.5625 -11.734375 10.84375 -11.546875 L 11.234375 -11.265625 L 9.828125 -8.421875 C 9.316406 -8.796875 8.644531 -8.984375 7.8125 -8.984375 Z M 7.8125 -8.984375 "/></g></g></g><g fill="#364f6a" fill-opacity="1"><g transform="translate(911.804002, 64.03696)"><g><path d="M 13.59375 -5.4375 L 4.859375 -5.4375 C 4.859375 -4.59375 5.128906 -3.96875 5.671875 -3.5625 C 6.222656 -3.15625 6.820312 -2.953125 7.46875 -2.953125 C 8.132812 -2.953125 8.660156 -3.039062 9.046875 -3.21875 C 9.441406 -3.40625 9.890625 -3.765625 10.390625 -4.296875 L 13.40625 -2.796875 C 12.144531 -0.691406 10.0625 0.359375 7.15625 0.359375 C 5.34375 0.359375 3.785156 -0.257812 2.484375 -1.5 C 1.191406 -2.75 0.546875 -4.25 0.546875 -6 C 0.546875 -7.757812 1.191406 -9.265625 2.484375 -10.515625 C 3.785156 -11.765625 5.34375 -12.390625 7.15625 -12.390625 C 9.0625 -12.390625 10.613281 -11.835938 11.8125 -10.734375 C 13.007812 -9.628906 13.609375 -8.054688 13.609375 -6.015625 C 13.609375 -5.722656 13.601562 -5.53125 13.59375 -5.4375 Z M 4.96875 -7.75 L 9.546875 -7.75 C 9.453125 -8.375 9.207031 -8.851562 8.8125 -9.1875 C 8.414062 -9.519531 7.90625 -9.6875 7.28125 -9.6875 C 6.59375 -9.6875 6.039062 -9.503906 5.625 -9.140625 C 5.21875 -8.785156 5 -8.320312 4.96875 -7.75 Z M 4.96875 -7.75 "/></g></g></g><g fill="#364f6a" fill-opacity="1"><g transform="translate(925.949924, 64.03696)"><g><path d="M 6.640625 -12.390625 C 7.328125 -12.390625 8.003906 -12.3125 8.671875 -12.15625 C 9.347656 -12 9.851562 -11.84375 10.1875 -11.6875 L 10.671875 -11.453125 L 9.3125 -8.734375 C 8.375 -9.234375 7.484375 -9.484375 6.640625 -9.484375 C 6.171875 -9.484375 5.835938 -9.429688 5.640625 -9.328125 C 5.441406 -9.222656 5.34375 -9.03125 5.34375 -8.75 C 5.34375 -8.6875 5.347656 -8.625 5.359375 -8.5625 C 5.378906 -8.5 5.410156 -8.441406 5.453125 -8.390625 C 5.503906 -8.335938 5.550781 -8.289062 5.59375 -8.25 C 5.632812 -8.207031 5.703125 -8.160156 5.796875 -8.109375 C 5.890625 -8.066406 5.960938 -8.035156 6.015625 -8.015625 C 6.078125 -7.992188 6.171875 -7.957031 6.296875 -7.90625 C 6.421875 -7.863281 6.515625 -7.828125 6.578125 -7.796875 C 6.640625 -7.773438 6.742188 -7.738281 6.890625 -7.6875 C 7.035156 -7.644531 7.148438 -7.617188 7.234375 -7.609375 C 7.710938 -7.460938 8.128906 -7.300781 8.484375 -7.125 C 8.847656 -6.957031 9.226562 -6.722656 9.625 -6.421875 C 10.03125 -6.128906 10.34375 -5.753906 10.5625 -5.296875 C 10.78125 -4.847656 10.890625 -4.332031 10.890625 -3.75 C 10.890625 -1.007812 8.988281 0.359375 5.1875 0.359375 C 4.320312 0.359375 3.503906 0.222656 2.734375 -0.046875 C 1.960938 -0.316406 1.40625 -0.582031 1.0625 -0.84375 L 0.546875 -1.265625 L 2.234375 -4.109375 C 2.359375 -3.992188 2.519531 -3.863281 2.71875 -3.71875 C 2.925781 -3.570312 3.296875 -3.367188 3.828125 -3.109375 C 4.359375 -2.847656 4.816406 -2.71875 5.203125 -2.71875 C 6.066406 -2.71875 6.5 -3.007812 6.5 -3.59375 C 6.5 -3.851562 6.390625 -4.054688 6.171875 -4.203125 C 5.953125 -4.359375 5.578125 -4.53125 5.046875 -4.71875 C 4.523438 -4.90625 4.117188 -5.078125 3.828125 -5.234375 C 3.078125 -5.617188 2.484375 -6.054688 2.046875 -6.546875 C 1.609375 -7.046875 1.390625 -7.703125 1.390625 -8.515625 C 1.390625 -9.734375 1.859375 -10.679688 2.796875 -11.359375 C 3.742188 -12.046875 5.023438 -12.390625 6.640625 -12.390625 Z M 6.640625 -12.390625 "/></g></g></g><path stroke-linecap="butt" transform="matrix(0.749618, 0.00485617, -0.00485617, 0.749618, 742.450797, 75.337961)" fill="none" stroke-linejoin="miter" d="M 0.000417853 1.998316 L 308.735642 1.999291 " stroke="#364f6a" stroke-width="4" stroke-opacity="1" stroke-miterlimit="4"/><g clip-path="url(#71540e0e0f)"><g clip-path="url(#cee1d67d84)"><path fill="#aac1d2" d="M -47.5625 -83.917969 L 303.5 -83.917969 L 303.5 107.300781 L -47.5625 107.300781 Z M -47.5625 -83.917969 " fill-opacity="1" fill-rule="nonzero"/></g></g><g clip-path="url(#884a845880)"><g clip-path="url(#a4e2364194)"><path fill="#d6edfa" d="M 18.3125 476.078125 L 208.59375 476.078125 L 208.59375 556.726562 L 18.3125 556.726562 Z M 18.3125 476.078125 " fill-opacity="1" fill-rule="nonzero"/></g></g><g fill="#364f6b" fill-opacity="1"><g transform="translate(90.055539, 521.058752)"><g><path d="M 1.078125 -22.046875 L 0.921875 -22.25 L 9.8125 -22.25 L 10.46875 -20.4375 C 10.726562 -19.738281 10.925781 -19.179688 11.0625 -18.765625 C 11.207031 -18.347656 11.304688 -18.097656 11.359375 -18.015625 C 11.421875 -17.835938 11.476562 -17.703125 11.53125 -17.609375 C 11.582031 -17.523438 11.609375 -17.507812 11.609375 -17.5625 C 11.640625 -17.5625 11.710938 -17.757812 11.828125 -18.15625 C 11.953125 -18.5625 12.164062 -19.148438 12.46875 -19.921875 L 13.21875 -22.25 L 17.71875 -22.25 C 20.675781 -22.25 22.15625 -22.238281 22.15625 -22.21875 C 22.15625 -22.175781 22.023438 -21.898438 21.765625 -21.390625 C 21.515625 -20.890625 21.191406 -20.273438 20.796875 -19.546875 C 20.410156 -18.828125 19.972656 -18.039062 19.484375 -17.1875 C 19.003906 -16.34375 18.550781 -15.535156 18.125 -14.765625 C 17.695312 -14.003906 17.316406 -13.332031 16.984375 -12.75 C 16.660156 -12.164062 16.445312 -11.773438 16.34375 -11.578125 L 15.953125 -10.921875 L 15.953125 0.71875 L 7.28125 0.71875 L 7.28125 -10.625 L 6.625 -11.71875 C 6.476562 -12.019531 6.234375 -12.476562 5.890625 -13.09375 C 5.546875 -13.707031 5.125 -14.472656 4.625 -15.390625 C 3.570312 -17.316406 2.75 -18.832031 2.15625 -19.9375 C 1.570312 -21.039062 1.210938 -21.742188 1.078125 -22.046875 Z M 1.078125 -22.046875 "/></g></g></g><g fill="#364f6b" fill-opacity="1"><g transform="translate(113.149811, 521.058752)"><g><path d="M 13.328125 -14.609375 C 13.253906 -14.609375 13.117188 -14.046875 12.921875 -12.921875 C 12.835938 -12.460938 12.78125 -12.113281 12.75 -11.875 C 12.71875 -11.632812 12.707031 -11.453125 12.71875 -11.328125 C 12.726562 -11.210938 12.765625 -11.144531 12.828125 -11.125 C 12.890625 -11.101562 12.988281 -11.09375 13.125 -11.09375 C 13.257812 -11.09375 13.472656 -11.085938 13.765625 -11.078125 C 14.054688 -11.066406 14.445312 -11.050781 14.9375 -11.03125 C 15.957031 -10.894531 16.46875 -10.859375 16.46875 -10.921875 C 16.5625 -10.941406 16.507812 -11.488281 16.3125 -12.5625 C 16.195312 -13.09375 16.109375 -13.476562 16.046875 -13.71875 C 15.984375 -13.957031 15.914062 -14.097656 15.84375 -14.140625 C 15.800781 -14.179688 15.664062 -14.226562 15.4375 -14.28125 C 15.207031 -14.34375 14.945312 -14.394531 14.65625 -14.4375 C 14.375 -14.476562 14.101562 -14.515625 13.84375 -14.546875 C 13.582031 -14.585938 13.410156 -14.609375 13.328125 -14.609375 Z M 5.046875 -21.921875 L 5.09375 -22.21875 L 14.5 -22.21875 C 17.695312 -22.238281 20.070312 -22.242188 21.625 -22.234375 C 23.175781 -22.222656 23.953125 -22.207031 23.953125 -22.1875 C 23.953125 -22.132812 24.015625 -21.71875 24.140625 -20.9375 C 24.273438 -20.164062 24.460938 -19.015625 24.703125 -17.484375 C 25.078125 -15.210938 25.4375 -12.941406 25.78125 -10.671875 C 26.132812 -8.410156 26.476562 -6.15625 26.8125 -3.90625 C 26.988281 -2.53125 27.144531 -1.460938 27.28125 -0.703125 C 27.425781 0.046875 27.5 0.445312 27.5 0.5 L 27.53125 0.71875 L 18.765625 0.71875 L 18.703125 0.53125 C 18.703125 0.4375 18.539062 -0.484375 18.21875 -2.234375 C 18.0625 -3.085938 17.953125 -3.734375 17.890625 -4.171875 C 17.835938 -4.609375 17.8125 -4.835938 17.8125 -4.859375 C 17.8125 -4.898438 16.71875 -4.921875 14.53125 -4.921875 L 11.453125 -4.921875 L 11.328125 -4.4375 C 11.273438 -4.28125 11.210938 -3.96875 11.140625 -3.5 C 11.066406 -3.03125 10.953125 -2.410156 10.796875 -1.640625 L 10.34375 0.71875 L 1.703125 0.71875 L 1.703125 0.421875 C 1.878906 -0.253906 2.195312 -2.332031 2.65625 -5.8125 C 2.675781 -5.914062 2.703125 -6.054688 2.734375 -6.234375 C 2.773438 -6.410156 2.8125 -6.597656 2.84375 -6.796875 C 2.875 -6.992188 2.898438 -7.171875 2.921875 -7.328125 C 2.941406 -7.492188 2.953125 -7.609375 2.953125 -7.671875 C 3.566406 -12.078125 4.054688 -15.453125 4.421875 -17.796875 C 4.796875 -20.148438 5.003906 -21.523438 5.046875 -21.921875 Z M 5.046875 -21.921875 "/></g></g></g><g fill="#364f6b" fill-opacity="1"><g transform="translate(142.444105, 521.058752)"><g><path d="M 1.046875 -22.3125 L 21.921875 -22.3125 L 21.921875 -18.109375 L 16.828125 -18.109375 L 16.828125 0.71875 L 6.296875 0.71875 L 6.296875 -18.109375 L 1.046875 -18.109375 Z M 1.046875 -22.3125 "/></g></g></g><g fill="#364f6b" fill-opacity="1"><g transform="translate(165.439962, 521.058752)"><g><path d="M 13.328125 -14.609375 C 13.253906 -14.609375 13.117188 -14.046875 12.921875 -12.921875 C 12.835938 -12.460938 12.78125 -12.113281 12.75 -11.875 C 12.71875 -11.632812 12.707031 -11.453125 12.71875 -11.328125 C 12.726562 -11.210938 12.765625 -11.144531 12.828125 -11.125 C 12.890625 -11.101562 12.988281 -11.09375 13.125 -11.09375 C 13.257812 -11.09375 13.472656 -11.085938 13.765625 -11.078125 C 14.054688 -11.066406 14.445312 -11.050781 14.9375 -11.03125 C 15.957031 -10.894531 16.46875 -10.859375 16.46875 -10.921875 C 16.5625 -10.941406 16.507812 -11.488281 16.3125 -12.5625 C 16.195312 -13.09375 16.109375 -13.476562 16.046875 -13.71875 C 15.984375 -13.957031 15.914062 -14.097656 15.84375 -14.140625 C 15.800781 -14.179688 15.664062 -14.226562 15.4375 -14.28125 C 15.207031 -14.34375 14.945312 -14.394531 14.65625 -14.4375 C 14.375 -14.476562 14.101562 -14.515625 13.84375 -14.546875 C 13.582031 -14.585938 13.410156 -14.609375 13.328125 -14.609375 Z M 5.046875 -21.921875 L 5.09375 -22.21875 L 14.5 -22.21875 C 17.695312 -22.238281 20.070312 -22.242188 21.625 -22.234375 C 23.175781 -22.222656 23.953125 -22.207031 23.953125 -22.1875 C 23.953125 -22.132812 24.015625 -21.71875 24.140625 -20.9375 C 24.273438 -20.164062 24.460938 -19.015625 24.703125 -17.484375 C 25.078125 -15.210938 25.4375 -12.941406 25.78125 -10.671875 C 26.132812 -8.410156 26.476562 -6.15625 26.8125 -3.90625 C 26.988281 -2.53125 27.144531 -1.460938 27.28125 -0.703125 C 27.425781 0.046875 27.5 0.445312 27.5 0.5 L 27.53125 0.71875 L 18.765625 0.71875 L 18.703125 0.53125 C 18.703125 0.4375 18.539062 -0.484375 18.21875 -2.234375 C 18.0625 -3.085938 17.953125 -3.734375 17.890625 -4.171875 C 17.835938 -4.609375 17.8125 -4.835938 17.8125 -4.859375 C 17.8125 -4.898438 16.71875 -4.921875 14.53125 -4.921875 L 11.453125 -4.921875 L 11.328125 -4.4375 C 11.273438 -4.28125 11.210938 -3.96875 11.140625 -3.5 C 11.066406 -3.03125 10.953125 -2.410156 10.796875 -1.640625 L 10.34375 0.71875 L 1.703125 0.71875 L 1.703125 0.421875 C 1.878906 -0.253906 2.195312 -2.332031 2.65625 -5.8125 C 2.675781 -5.914062 2.703125 -6.054688 2.734375 -6.234375 C 2.773438 -6.410156 2.8125 -6.597656 2.84375 -6.796875 C 2.875 -6.992188 2.898438 -7.171875 2.921875 -7.328125 C 2.941406 -7.492188 2.953125 -7.609375 2.953125 -7.671875 C 3.566406 -12.078125 4.054688 -15.453125 4.421875 -17.796875 C 4.796875 -20.148438 5.003906 -21.523438 5.046875 -21.921875 Z M 5.046875 -21.921875 "/></g></g></g><g fill="#364f6b" fill-opacity="1"><g transform="translate(88.602451, 538.575122)"><g><path d="M 4.5625 -4.277344 L 4.5625 -5.550781 L 2.898438 -5.550781 L 2.898438 -3.414062 L 1.789062 -3.414062 L 1.789062 -5.550781 L 0.125 -5.550781 L 0.125 -4.277344 L 0.398438 -4.277344 L 0.398438 -2.1875 L 1.648438 -2.1875 L 1.648438 0 L 3.039062 0 L 3.039062 -2.1875 L 4.289062 -2.1875 L 4.289062 -4.277344 Z M 4.5625 -4.277344 "/></g></g></g><g fill="#364f6b" fill-opacity="1"><g transform="translate(93.288348, 538.575122)"><g><path d="M 4.371094 0 L 4.371094 -1.265625 L 1.605469 -1.265625 L 1.605469 -2.179688 L 4.371094 -2.179688 L 4.371094 -3.40625 L 1.605469 -3.40625 L 1.605469 -4.277344 L 4.371094 -4.277344 L 4.371094 -5.550781 L 0.214844 -5.550781 L 0.214844 0 Z M 4.371094 0 "/></g></g></g><g fill="#364f6b" fill-opacity="1"><g transform="translate(97.874375, 538.575122)"><g><path d="M 4.296875 -4.277344 L 4.296875 -5.550781 L 0.125 -5.550781 L 0.125 -4.277344 L 1.523438 -4.277344 L 1.523438 0 L 2.914062 0 L 2.914062 -4.277344 Z M 4.296875 -4.277344 "/></g></g></g><g fill="#364f6b" fill-opacity="1"><g transform="translate(102.293933, 538.575122)"><g/></g></g><g fill="#364f6b" fill-opacity="1"><g transform="translate(105.207017, 538.575122)"><g><path d="M 4.386719 0 L 4.386719 -5.550781 L 0.214844 -5.550781 L 0.214844 0 L 1.605469 0 L 1.605469 -1.546875 L 2.996094 -1.546875 L 2.996094 0 Z M 2.996094 -2.8125 L 1.605469 -2.8125 L 1.605469 -4.277344 L 2.996094 -4.277344 Z M 2.996094 -2.8125 "/></g></g></g><g fill="#364f6b" fill-opacity="1"><g transform="translate(109.809688, 538.575122)"><g><path d="M 4.296875 0 L 4.296875 -5.550781 L 0.125 -5.550781 L 0.125 -4.277344 L 0.398438 -4.277344 L 0.398438 0 L 1.515625 0 L 1.515625 -4.277344 L 2.90625 -4.277344 L 2.90625 0 Z M 4.296875 0 "/></g></g></g><g fill="#364f6b" fill-opacity="1"><g transform="translate(114.320806, 538.575122)"><g><path d="M 4.386719 0 L 4.386719 -5.550781 L 0.214844 -5.550781 L 0.214844 0 Z M 2.996094 -1.265625 L 1.605469 -1.265625 L 1.605469 -4.277344 L 2.996094 -4.277344 Z M 2.996094 -1.265625 "/></g></g></g><g fill="#364f6b" fill-opacity="1"><g transform="translate(118.923476, 538.575122)"><g><path d="M 4.296875 -4.277344 L 4.296875 -5.550781 L 0.125 -5.550781 L 0.125 -4.277344 L 1.523438 -4.277344 L 1.523438 0 L 2.914062 0 L 2.914062 -4.277344 Z M 4.296875 -4.277344 "/></g></g></g><g fill="#364f6b" fill-opacity="1"><g transform="translate(123.343034, 538.575122)"><g><path d="M 4.386719 0 L 4.386719 -5.550781 L 2.996094 -5.550781 L 2.996094 -3.40625 L 1.605469 -3.40625 L 1.605469 -5.550781 L 0.214844 -5.550781 L 0.214844 0 L 1.605469 0 L 1.605469 -2.179688 L 2.996094 -2.179688 L 2.996094 0 Z M 4.386719 0 "/></g></g></g><g fill="#364f6b" fill-opacity="1"><g transform="translate(127.945705, 538.575122)"><g><path d="M 4.371094 0 L 4.371094 -1.265625 L 1.605469 -1.265625 L 1.605469 -2.179688 L 4.371094 -2.179688 L 4.371094 -3.40625 L 1.605469 -3.40625 L 1.605469 -4.277344 L 4.371094 -4.277344 L 4.371094 -5.550781 L 0.214844 -5.550781 L 0.214844 0 Z M 4.371094 0 "/></g></g></g><g fill="#364f6b" fill-opacity="1"><g transform="translate(132.531731, 538.575122)"><g><path d="M 4.386719 0 L 3.570312 -1.546875 L 4.386719 -1.546875 L 4.386719 -5.550781 L 0.214844 -5.550781 L 0.214844 0 L 1.605469 0 L 1.605469 -1.546875 L 2.207031 -1.546875 L 2.996094 0 Z M 2.996094 -2.8125 L 1.605469 -2.8125 L 1.605469 -4.277344 L 2.996094 -4.277344 Z M 2.996094 -2.8125 "/></g></g></g><g fill="#364f6b" fill-opacity="1"><g transform="translate(137.134402, 538.575122)"><g/></g></g><g fill="#364f6b" fill-opacity="1"><g transform="translate(140.047486, 538.575122)"><g><path d="M 4.296875 -4.277344 L 4.296875 -5.550781 L 0.125 -5.550781 L 0.125 -4.277344 L 1.523438 -4.277344 L 1.523438 0 L 2.914062 0 L 2.914062 -4.277344 Z M 4.296875 -4.277344 "/></g></g></g><g fill="#364f6b" fill-opacity="1"><g transform="translate(144.467044, 538.575122)"><g><path d="M 1.605469 0 L 1.605469 -5.550781 L 0.214844 -5.550781 L 0.214844 0 Z M 1.605469 0 "/></g></g></g><g fill="#364f6b" fill-opacity="1"><g transform="translate(146.289803, 538.575122)"><g><path d="M 5.675781 0 L 5.675781 -5.550781 L 0.125 -5.550781 L 0.125 -4.277344 L 0.398438 -4.277344 L 0.398438 0 L 1.515625 0 L 1.515625 -4.277344 L 2.207031 -4.277344 L 2.207031 0 L 3.597656 0 L 3.597656 -4.277344 L 4.289062 -4.277344 L 4.289062 0 Z M 5.675781 0 "/></g></g></g><g fill="#364f6b" fill-opacity="1"><g transform="translate(152.182555, 538.575122)"><g><path d="M 4.371094 0 L 4.371094 -1.265625 L 1.605469 -1.265625 L 1.605469 -2.179688 L 4.371094 -2.179688 L 4.371094 -3.40625 L 1.605469 -3.40625 L 1.605469 -4.277344 L 4.371094 -4.277344 L 4.371094 -5.550781 L 0.214844 -5.550781 L 0.214844 0 Z M 4.371094 0 "/></g></g></g><g fill="#364f6b" fill-opacity="1"><g transform="translate(156.768581, 538.575122)"><g><path d="M 4.296875 -4.277344 L 4.296875 -5.550781 L 0.125 -5.550781 L 0.125 -4.277344 L 1.523438 -4.277344 L 1.523438 0 L 2.914062 0 L 2.914062 -4.277344 Z M 4.296875 -4.277344 "/></g></g></g><g fill="#364f6b" fill-opacity="1"><g transform="translate(161.18814, 538.575122)"><g><path d="M 4.386719 0 L 4.386719 -5.550781 L 0.214844 -5.550781 L 0.214844 0 L 1.605469 0 L 1.605469 -1.546875 L 2.996094 -1.546875 L 2.996094 0 Z M 2.996094 -2.8125 L 1.605469 -2.8125 L 1.605469 -4.277344 L 2.996094 -4.277344 Z M 2.996094 -2.8125 "/></g></g></g><g fill="#364f6b" fill-opacity="1"><g transform="translate(165.79081, 538.575122)"><g><path d="M 4.386719 0 L 4.386719 -2.179688 L 3.769531 -2.789062 L 4.386719 -3.40625 L 4.386719 -5.550781 L 0.214844 -5.550781 L 0.214844 0 Z M 2.996094 -3.40625 L 1.605469 -3.40625 L 1.605469 -4.277344 L 2.996094 -4.277344 Z M 2.996094 -1.265625 L 1.605469 -1.265625 L 1.605469 -2.179688 L 2.996094 -2.179688 Z M 2.996094 -1.265625 "/></g></g></g><g fill="#364f6b" fill-opacity="1"><g transform="translate(170.39348, 538.575122)"><g><path d="M 4.371094 0 L 4.371094 -1.265625 L 1.605469 -1.265625 L 1.605469 -5.550781 L 0.214844 -5.550781 L 0.214844 0 Z M 4.371094 0 "/></g></g></g><g fill="#364f6b" fill-opacity="1"><g transform="translate(174.929568, 538.575122)"><g><path d="M 4.371094 0 L 4.371094 -1.265625 L 1.605469 -1.265625 L 1.605469 -2.179688 L 4.371094 -2.179688 L 4.371094 -3.40625 L 1.605469 -3.40625 L 1.605469 -4.277344 L 4.371094 -4.277344 L 4.371094 -5.550781 L 0.214844 -5.550781 L 0.214844 0 Z M 4.371094 0 "/></g></g></g><g fill="#364f6b" fill-opacity="1"><g transform="translate(179.515594, 538.575122)"><g/></g></g><g fill="#364f6b" fill-opacity="1"><g transform="translate(182.428678, 538.575122)"><g><path d="M 4.386719 0 L 4.386719 -5.550781 L 0.214844 -5.550781 L 0.214844 0 L 1.605469 0 L 1.605469 -1.546875 L 2.996094 -1.546875 L 2.996094 0 Z M 2.996094 -2.8125 L 1.605469 -2.8125 L 1.605469 -4.277344 L 2.996094 -4.277344 Z M 2.996094 -2.8125 "/></g></g></g><g fill="#364f6b" fill-opacity="1"><g transform="translate(187.031349, 538.575122)"><g><path d="M 4.386719 -1.546875 L 4.386719 -5.550781 L 0.214844 -5.550781 L 0.214844 0 L 1.605469 0 L 1.605469 -1.546875 Z M 2.996094 -2.8125 L 1.605469 -2.8125 L 1.605469 -4.277344 L 2.996094 -4.277344 Z M 2.996094 -2.8125 "/></g></g></g><g fill="#364f6b" fill-opacity="1"><g transform="translate(191.60905, 538.575122)"><g><path d="M 4.386719 -1.546875 L 4.386719 -5.550781 L 0.214844 -5.550781 L 0.214844 0 L 1.605469 0 L 1.605469 -1.546875 Z M 2.996094 -2.8125 L 1.605469 -2.8125 L 1.605469 -4.277344 L 2.996094 -4.277344 Z M 2.996094 -2.8125 "/></g></g></g><g clip-path="url(#82a3858ba2)"><path fill="#364f6b" d="M 56.28125 543.164062 C 49.132812 543.164062 42.414062 540.378906 37.355469 535.324219 C 32.300781 530.269531 29.519531 523.546875 29.519531 516.398438 C 29.519531 509.25 32.300781 502.53125 37.355469 497.472656 C 42.414062 492.417969 49.132812 489.636719 56.28125 489.636719 C 63.429688 489.636719 70.152344 492.417969 75.207031 497.472656 C 80.261719 502.53125 83.046875 509.25 83.046875 516.398438 C 83.046875 523.546875 80.261719 530.269531 75.207031 535.324219 C 70.152344 540.378906 63.429688 543.164062 56.28125 543.164062 Z M 56.28125 493.71875 C 43.777344 493.71875 33.601562 503.894531 33.601562 516.398438 C 33.601562 528.90625 43.777344 539.078125 56.28125 539.078125 C 68.789062 539.078125 78.960938 528.90625 78.960938 516.398438 C 78.960938 503.894531 68.789062 493.71875 56.28125 493.71875 Z M 56.28125 493.71875 " fill-opacity="1" fill-rule="nonzero"/></g><path fill="#364f6b" d="M 65.167969 526.734375 C 64.769531 526.734375 64.367188 526.617188 64.011719 526.375 L 54.0625 519.550781 C 53.507812 519.171875 53.175781 518.539062 53.175781 517.863281 L 53.203125 501.167969 C 53.203125 500.042969 54.117188 499.128906 55.242188 499.128906 C 55.246094 499.128906 55.246094 499.128906 55.246094 499.128906 C 56.375 499.132812 57.289062 500.046875 57.285156 501.175781 L 57.261719 516.792969 L 66.324219 523.007812 C 67.253906 523.644531 67.488281 524.917969 66.851562 525.847656 C 66.457031 526.421875 65.816406 526.734375 65.167969 526.734375 Z M 65.167969 526.734375 " fill-opacity="1" fill-rule="nonzero"/></svg>